HIERARCHY
ROOT Hips
{
  OFFSET 5.80788e-005 67.184 3.4734
  CHANNELS 6 Xposition Yposition Zposition Zrotation Xrotation Yrotation
  JOINT Chest
  {
    OFFSET 0 8.7983 -4.7612
    CHANNELS 3 Zrotation Xrotation Yrotation
    JOINT Chest2
    {
      OFFSET 0 8.0291 0.4195
      CHANNELS 3 Zrotation Xrotation Yrotation
      JOINT Chest3
      {
        OFFSET 0 9.9351 -2.2114
        CHANNELS 3 Zrotation Xrotation Yrotation
        JOINT Neck
        {
          OFFSET 0 22.3885 -0.4656
          CHANNELS 3 Zrotation Xrotation Yrotation
          JOINT Head
          {
            OFFSET -0.0001 12.643 3.4389
            CHANNELS 3 Zrotation Xrotation Yrotation
            End Site
            {
              OFFSET 0.0001 17.6655 0.5274
            }
          }
        }
        JOINT LeftCollar
        {
          OFFSET 2.2603 21.606 7.4023
          CHANNELS 3 Zrotation Xrotation Yrotation
          JOINT LeftShoulder
          {
            OFFSET 13.5163 -1.1332 -5.0146
            CHANNELS 3 Zrotation Xrotation Yrotation
            JOINT LeftElbow
            {
              OFFSET -0.0995 -28.05 -0.2431
              CHANNELS 3 Zrotation Xrotation Yrotation
              JOINT LeftWrist
              {
                OFFSET 0.0679 -23.3996 -0.1402
                CHANNELS 3 Zrotation Xrotation Yrotation
                JOINT LeftFinger1
                {
                  OFFSET 0.7932 -9.069 2.5189
                  CHANNELS 3 Zrotation Xrotation Yrotation
                  JOINT LeftFinger11
                  {
                    OFFSET -0.8272 -3.3923 0.5977
                    CHANNELS 3 Zrotation Xrotation Yrotation
                    JOINT LeftFinger12
                    {
                      OFFSET -0.5649 -2.3158 0.4082
                      CHANNELS 3 Zrotation Xrotation Yrotation
                      End Site
                      {
                        OFFSET -0.4919 -1.6479 0.2673
                      }
                    }
                  }
                }
                JOINT LeftFinger2
                {
                  OFFSET 0.9159 -9.2044 0.2193
                  CHANNELS 3 Zrotation Xrotation Yrotation
                  JOINT LeftFinger21
                  {
                    OFFSET 0.0117 -4.1944 -0.0248
                    CHANNELS 3 Zrotation Xrotation Yrotation
                    JOINT LeftFinger22
                    {
                      OFFSET 0.0071 -2.3249 -0.0142
                      CHANNELS 3 Zrotation Xrotation Yrotation
                      End Site
                      {
                        OFFSET -0.1475 -2.0882 0.0028
                      }
                    }
                  }
                }
                JOINT LeftFinger3
                {
                  OFFSET 0.6113 -8.7231 -2.0637
                  CHANNELS 3 Zrotation Xrotation Yrotation
                  JOINT LeftFinger31
                  {
                    OFFSET -0.1927 -3.8059 -0.2383
                    CHANNELS 3 Zrotation Xrotation Yrotation
                    JOINT LeftFinger32
                    {
                      OFFSET -0.1091 -2.1688 -0.1362
                      CHANNELS 3 Zrotation Xrotation Yrotation
                      End Site
                      {
                        OFFSET -0.2358 -1.9176 -0.0906
                      }
                    }
                  }
                }
                JOINT LeftFinger4
                {
                  OFFSET -0.6151 -8.0947 -3.5641
                  CHANNELS 3 Zrotation Xrotation Yrotation
                  JOINT LeftFinger41
                  {
                    OFFSET -0.4882 -2.341 -0.6462
                    CHANNELS 3 Zrotation Xrotation Yrotation
                    JOINT LeftFinger42
                    {
                      OFFSET -0.3575 -1.7167 -0.4742
                      CHANNELS 3 Zrotation Xrotation Yrotation
                      End Site
                      {
                        OFFSET -0.4187 -1.5237 -0.3496
                      }
                    }
                  }
                }
                JOINT LeftFinger0
                {
                  OFFSET -1.42 -1.8761 1.4223
                  CHANNELS 3 Zrotation Xrotation Yrotation
                  JOINT LeftFinger01
                  {
                    OFFSET -1.1471 -3.4929 2.6334
                    CHANNELS 3 Zrotation Xrotation Yrotation
                    JOINT LeftFinger02
                    {
                      OFFSET -0.823 -2.3 1.6571
                      CHANNELS 3 Zrotation Xrotation Yrotation
                      End Site
                      {
                        OFFSET -0.5822 -1.6914 1.1582
                      }
                    }
                  }
                }
              }
            }
          }
        }
        JOINT RightCollar
        {
          OFFSET -2.2603 21.606 7.4023
          CHANNELS 3 Zrotation Xrotation Yrotation
          JOINT RightShoulder
          {
            OFFSET -13.5187 -1.1334 -5.0155
            CHANNELS 3 Zrotation Xrotation Yrotation
            JOINT RightElbow
            {
              OFFSET 0.0994 -28.0499 -0.2431
              CHANNELS 3 Zrotation Xrotation Yrotation
              JOINT RightWrist
              {
                OFFSET -0.0679 -23.3996 -0.1402
                CHANNELS 3 Zrotation Xrotation Yrotation
                JOINT RightFinger1
                {
                  OFFSET -0.7932 -9.0691 2.5189
                  CHANNELS 3 Zrotation Xrotation Yrotation
                  JOINT RightFinger11
                  {
                    OFFSET 0.8272 -3.3923 0.5977
                    CHANNELS 3 Zrotation Xrotation Yrotation
                    JOINT RightFinger12
                    {
                      OFFSET 0.565 -2.3158 0.4082
                      CHANNELS 3 Zrotation Xrotation Yrotation
                      End Site
                      {
                        OFFSET 0.4919 -1.6479 0.2673
                      }
                    }
                  }
                }
                JOINT RightFinger2
                {
                  OFFSET -0.916 -9.2044 0.2193
                  CHANNELS 3 Zrotation Xrotation Yrotation
                  JOINT RightFinger21
                  {
                    OFFSET -0.0117 -4.1944 -0.0248
                    CHANNELS 3 Zrotation Xrotation Yrotation
                    JOINT RightFinger22
                    {
                      OFFSET -0.0071 -2.3249 -0.0142
                      CHANNELS 3 Zrotation Xrotation Yrotation
                      End Site
                      {
                        OFFSET 0.1475 -2.0882 0.0028
                      }
                    }
                  }
                }
                JOINT RightFinger3
                {
                  OFFSET -0.6113 -8.7231 -2.0637
                  CHANNELS 3 Zrotation Xrotation Yrotation
                  JOINT RightFinger31
                  {
                    OFFSET 0.1927 -3.8059 -0.2383
                    CHANNELS 3 Zrotation Xrotation Yrotation
                    JOINT RightFinger32
                    {
                      OFFSET 0.1091 -2.1688 -0.1362
                      CHANNELS 3 Zrotation Xrotation Yrotation
                      End Site
                      {
                        OFFSET 0.2358 -1.9176 -0.0906
                      }
                    }
                  }
                }
                JOINT RightFinger4
                {
                  OFFSET 0.6151 -8.0947 -3.564
                  CHANNELS 3 Zrotation Xrotation Yrotation
                  JOINT RightFinger41
                  {
                    OFFSET 0.4882 -2.341 -0.6462
                    CHANNELS 3 Zrotation Xrotation Yrotation
                    JOINT RightFinger42
                    {
                      OFFSET 0.3574 -1.7166 -0.4742
                      CHANNELS 3 Zrotation Xrotation Yrotation
                      End Site
                      {
                        OFFSET 0.4187 -1.5237 -0.3496
                      }
                    }
                  }
                }
                JOINT RightFinger0
                {
                  OFFSET 1.4199 -1.8761 1.4221
                  CHANNELS 3 Zrotation Xrotation Yrotation
                  JOINT RightFinger01
                  {
                    OFFSET 1.1472 -3.4929 2.6336
                    CHANNELS 3 Zrotation Xrotation Yrotation
                    JOINT RightFinger02
                    {
                      OFFSET 0.8229 -2.3 1.6571
                      CHANNELS 3 Zrotation Xrotation Yrotation
                      End Site
                      {
                        OFFSET 0.5822 -1.6914 1.1582
                      }
                    }
                  }
                }
              }
            }
          }
        }
      }
    }
  }
  JOINT RightHip
  {
    OFFSET -9.412 3.9771 -0.7758
    CHANNELS 3 Zrotation Xrotation Yrotation
    JOINT RightKnee
    {
      OFFSET -0.7531 -40.938 0
      CHANNELS 3 Zrotation Xrotation Yrotation
      JOINT RightAnkle
      {
        OFFSET 0 -40.1986 0
        CHANNELS 3 Zrotation Xrotation Yrotation
        JOINT RightToe
        {
          OFFSET 0 -4.4182 9.239
          CHANNELS 3 Zrotation Xrotation Yrotation
          End Site
          {
            OFFSET 0 0 6.1981
          }
        }
      }
    }
  }
  JOINT LeftHip
  {
    OFFSET 9.4119 3.9773 -0.7758
    CHANNELS 3 Zrotation Xrotation Yrotation
    JOINT LeftKnee
    {
      OFFSET 0.7532 -40.9383 0
      CHANNELS 3 Zrotation Xrotation Yrotation
      JOINT LeftAnkle
      {
        OFFSET 0 -40.1986 0
        CHANNELS 3 Zrotation Xrotation Yrotation
        JOINT LeftToe
        {
          OFFSET 0 -4.4182 9.239
          CHANNELS 3 Zrotation Xrotation Yrotation
          End Site
          {
            OFFSET 0 0 6.1981
          }
        }
      }
    }
  }
}
MOTION
Frames:	5
Frame Time:	0.0333333
0.0960327 2.52107 6.73563 180 -89.9981 180 -0.0243142 6.93439 -0.0999583 -0.0367447 13.8688 -0.199142 -0.0367447 13.8689 -0.199142 25.355 26.6047 -11.9848 -10.0879 3.25014 1.87371 8.59549 -2.20575 -3.12343 15.3865 -7.40387 28.7522 -13.2155 -77.2353 -0.140106 -45.9832 1.7914 30.0232 0 0 -6.36111e-015 -3.18055e-015 3.18055e-015 -3.18055e-015 -3.18055e-015 6.36111e-015 -6.36111e-015 0 0 -6.36111e-015 -0.0127943 0.00230804 9.29315e-005 6.36111e-015 0 -0 0 0 -6.36111e-015 -0.0160697 0.00299345 0.000859013 -3.18055e-015 -3.18055e-015 -6.36111e-015 0 0 -6.36111e-015 -0.0125543 0.00310642 0.00282238 -3.18055e-015 -3.18055e-015 3.18055e-015 0 0 -6.36111e-015 -3.18055e-015 3.18055e-015 -3.18055e-015 -3.18055e-015 6.36111e-015 -6.36111e-015 -15.4091 -5.45854 9.23126 -20.8165 -23.5975 -23.3166 3.05218 -79.8804 -11.0413 68.9949 7.18928 -15.7852 -1.59028e-015 3.18055e-015 9.54166e-015 7.95139e-016 -3.18055e-015 -0 3.18055e-015 6.36111e-015 -0 -1.59028e-015 3.18055e-015 9.54166e-015 0.0129304 0.00231388 -8.44015e-005 8.74653e-015 0 3.18055e-015 -1.59028e-015 3.18055e-015 9.54166e-015 0.0163177 0.00302644 -0.000870478 -3.18055e-015 -3.18055e-015 3.18055e-015 -1.59028e-015 3.18055e-015 9.54166e-015 0.0146098 0.00368103 -0.00326512 7.95139e-016 6.36111e-015 -3.18055e-015 -1.59028e-015 3.18055e-015 9.54166e-015 7.95139e-016 -3.18055e-015 -0 3.18055e-015 6.36111e-015 -0 -167.212 -38.0967 -173.477 2.14033 39.662 -2.39994 -8.28494 13.9794 -0.571164 -4.96962e-016 -3.8897e-010 -3.18055e-015 148.332 -45.9696 157.938 -3.43675 5.05512 0.737678 8.78388 15.8421 0.530761 7.95139e-016 1.59028e-015 -3.18055e-015 
0.095749 2.52101 6.73548 -179.999 -89.9981 -179.999 -0.0243003 6.92812 -0.0999666 -0.0367265 13.8563 -0.199159 -0.0367266 13.8564 -0.199159 25.8993 26.5004 -12.2282 -10.0769 3.38762 1.63796 8.5955 -2.20569 -3.12344 15.3664 -7.41074 28.7465 -13.2157 -77.2353 -0.140285 -45.9832 1.79141 30.0232 3.18055e-015 -3.18055e-015 -0 -3.18055e-015 0 6.36111e-015 -3.18055e-015 6.36111e-015 3.18055e-015 3.18055e-015 -3.18055e-015 -0 -0.0128518 0.00233529 9.1789e-005 9.54166e-015 0 -0 3.18055e-015 -3.18055e-015 -0 -0.01607 0.0030032 0.000857352 -3.18055e-015 3.18055e-015 -3.18055e-015 3.18055e-015 -3.18055e-015 -0 -0.0125955 0.00312811 0.00282989 -3.53113e-031 -6.36111e-015 -3.18055e-015 3.18055e-015 -3.18055e-015 -0 -3.18055e-015 0 6.36111e-015 -3.18055e-015 6.36111e-015 3.18055e-015 -15.4091 -5.45849 9.23127 -20.787 -23.6036 -23.2993 3.11712 -79.9144 -10.9764 68.9949 7.18926 -15.7852 5.56597e-015 3.18055e-015 3.18055e-015 -2.23503e-005 -6.01991e-006 -4.90147e-006 2.52819e-005 3.21471e-006 5.70345e-006 5.56597e-015 3.18055e-015 3.18055e-015 0.0129313 0.00231054 -9.00001e-005 -6.36111e-015 1.15819e-006 6.36111e-015 5.56597e-015 3.18055e-015 3.18055e-015 0.0163465 0.003039 -0.000875546 -6.80506e-007 1.23442e-006 1.47697e-006 5.56597e-015 3.18055e-015 3.18055e-015 0.0145905 0.00368008 -0.00327667 -6.36111e-015 -9.54166e-015 -0 5.56597e-015 3.18055e-015 3.18055e-015 -2.23503e-005 -6.01991e-006 -4.90147e-006 2.52819e-005 3.21471e-006 5.70345e-006 -167.212 -38.0957 -173.476 2.12758 39.6169 -2.39175 -8.28477 13.9805 -0.57087 3.77691e-015 4.33156e-007 -4.77083e-015 148.345 -46.0053 157.932 -3.44957 5.00116 0.736435 8.78445 15.8513 0.529615 1.0609e-006 -6.3325e-007 -2.16929e-006 
0.0954661 2.52094 6.73534 -180 -89.9981 -180 -0.0242865 6.92186 -0.0999752 -0.0367083 13.8438 -0.199177 -0.0367084 13.8439 -0.199178 26.4421 26.394 -12.47 -10.0652 3.52501 1.40221 8.5955 -2.2057 -3.12344 15.3463 -7.4176 28.7408 -13.2156 -77.2354 -0.140294 -45.9832 1.79141 30.0232 3.18055e-015 3.18055e-015 3.18055e-015 0 3.18055e-015 -0 -6.36111e-015 -9.54166e-015 -3.18055e-015 3.18055e-015 3.18055e-015 3.18055e-015 -0.012838 0.00233612 9.14517e-005 -1.15174e-007 -5.57529e-006 2.30886e-006 3.18055e-015 3.18055e-015 3.18055e-015 -0.0160502 0.00299249 0.000849256 6.36111e-015 -6.36111e-015 -0 3.18055e-015 3.18055e-015 3.18055e-015 -0.0126028 0.00312574 0.0028229 -3.18055e-015 0 -0 3.18055e-015 3.18055e-015 3.18055e-015 0 3.18055e-015 -0 -6.36111e-015 -9.54166e-015 -3.18055e-015 -15.4091 -5.45851 9.23127 -20.7569 -23.6096 -23.2817 3.18176 -79.9486 -10.9111 68.9949 7.18928 -15.7852 6.79368e-007 -1.52031e-007 -1.47787e-006 -0 -6.36111e-015 -0 2.25345e-006 -4.46336e-006 2.27908e-006 6.79368e-007 -1.52031e-007 -1.47787e-006 0.01295 0.00231789 -8.26086e-005 -1.35136e-005 -6.19385e-006 -3.23902e-006 6.79368e-007 -1.52031e-007 -1.47787e-006 0.0164026 0.00304899 -0.000877152 -1.24632e-005 -7.07531e-006 -9.83563e-007 6.79368e-007 -1.52031e-007 -1.47787e-006 0.0146259 0.00368858 -0.00326703 2.93317e-006 -2.88107e-006 8.01315e-007 6.79368e-007 -1.52031e-007 -1.47787e-006 -0 -6.36111e-015 -0 2.25345e-006 -4.46336e-006 2.27908e-006 -167.212 -38.0951 -173.475 2.11481 39.5714 -2.38354 -8.28461 13.9816 -0.570582 -2.98177e-015 -4.33931e-007 -4.77083e-015 148.358 -46.0409 157.926 -3.46242 4.94734 0.735243 8.78506 15.8603 0.528461 5.33002e-007 -4.25721e-006 2.8013e-007 
0.0951832 2.52088 6.7352 -179.999 -89.9981 -179.999 -0.0242727 6.91563 -0.099984 -0.03669 13.8313 -0.199195 -0.0366901 13.8313 -0.199195 26.9835 26.2856 -12.7103 -10.0525 3.66233 1.16645 8.59549 -2.20573 -3.12343 15.3262 -7.42447 28.7351 -13.2157 -77.2354 -0.140342 -45.9832 1.7914 30.0232 -9.32381e-007 -9.35925e-006 -8.05263e-006 -6.36111e-015 6.36111e-015 -3.18055e-015 -0 -3.18055e-015 -0 -9.32381e-007 -9.35925e-006 -8.05263e-006 -0.0128031 0.00232331 8.41145e-005 3.18055e-015 -9.54166e-015 -6.36111e-015 -9.32381e-007 -9.35925e-006 -8.05263e-006 -0.0160515 0.00300381 0.000856266 1.79596e-006 -4.65658e-006 -2.27947e-006 -9.32381e-007 -9.35925e-006 -8.05263e-006 -0.0126021 0.00312567 0.002836 -6.36111e-015 6.36111e-015 -0 -9.32381e-007 -9.35925e-006 -8.05263e-006 -6.36111e-015 6.36111e-015 -3.18055e-015 -0 -3.18055e-015 -0 -15.4091 -5.45854 9.23126 -20.7275 -23.6156 -23.2644 3.2473 -79.9825 -10.8456 68.9949 7.18927 -15.7852 9.54166e-015 -3.18055e-015 3.18055e-015 3.97569e-015 -3.18055e-015 3.18055e-015 -5.29669e-031 3.18055e-015 9.54166e-015 9.54166e-015 -3.18055e-015 3.18055e-015 0.0129937 0.00232528 -8.51987e-005 7.15625e-015 -6.36111e-015 -3.18055e-015 9.54166e-015 -3.18055e-015 3.18055e-015 0.0163365 0.00303974 -0.000878096 3.97569e-015 3.18055e-015 -6.36111e-015 9.54166e-015 -3.18055e-015 3.18055e-015 0.0145065 0.00366424 -0.00324686 -5.44553e-006 -6.97267e-007 1.38636e-006 9.54166e-015 -3.18055e-015 3.18055e-015 3.97569e-015 -3.18055e-015 3.18055e-015 -5.29669e-031 3.18055e-015 9.54166e-015 -167.213 -38.0942 -173.475 2.10212 39.5262 -2.37539 -8.28445 13.9827 -0.57029 1.78374e-006 -7.05841e-008 -1.62779e-006 148.371 -46.0768 157.92 -3.47527 4.89288 0.733959 8.78567 15.8697 0.527265 -1.0597e-006 -1.01764e-006 2.16987e-006 
0.0948996 2.52082 6.73506 180 -89.9981 180 -0.0242588 6.90937 -0.0999929 -0.0366717 13.8188 -0.199213 -0.0366718 13.8188 -0.199214 27.5234 26.1754 -12.949 -10.0388 3.79953 0.930685 8.59549 -2.2057 -3.12344 15.3062 -7.43138 28.7294 -13.2157 -77.2353 -0.140332 -45.9832 1.7914 30.0232 1.05934e-030 -6.36111e-015 9.54166e-015 3.18055e-015 6.36111e-015 3.18055e-015 3.18055e-015 0 -0 1.05934e-030 -6.36111e-015 9.54166e-015 -0.012813 0.00232663 8.98871e-005 -6.36111e-015 0 -3.18055e-015 1.05934e-030 -6.36111e-015 9.54166e-015 -0.0160272 0.00298718 0.00084975 3.18055e-015 3.18055e-015 6.36111e-015 1.05934e-030 -6.36111e-015 9.54166e-015 -0.0125594 0.00311602 0.0028176 0 0 -0 1.05934e-030 -6.36111e-015 9.54166e-015 3.18055e-015 6.36111e-015 3.18055e-015 3.18055e-015 0 -0 -15.4091 -5.45851 9.23126 -20.6972 -23.6215 -23.2467 3.31312 -80.0168 -10.7792 68.9949 7.18929 -15.7852 -7.50625e-006 -1.35839e-007 -4.62603e-006 -7.15625e-015 -3.18055e-015 -0 6.76951e-007 -7.56364e-008 -1.47956e-006 -7.50625e-006 -1.35839e-007 -4.62603e-006 0.0129083 0.00230472 -7.96719e-005 6.76894e-007 -7.56441e-008 -1.47953e-006 -7.50625e-006 -1.35839e-007 -4.62603e-006 0.0163726 0.00304112 -0.000872613 2.38542e-015 -3.54371e-006 -3.18055e-015 -7.50625e-006 -1.35839e-007 -4.62603e-006 0.0145688 0.00367083 -0.00325908 2.93558e-006 -2.80592e-006 7.99774e-007 -7.50625e-006 -1.35839e-007 -4.62603e-006 -7.15625e-015 -3.18055e-015 -0 6.76951e-007 -7.56364e-008 -1.47956e-006 -167.213 -38.0934 -173.474 2.08939 39.481 -2.36725 -8.28427 13.9837 -0.570001 5.46657e-008 -4.21861e-007 -8.34676e-007 148.384 -46.1134 157.914 -3.4881 4.83698 0.732532 8.78628 15.8798 0.526033 1.49597e-006 -2.86777e-006 -6.10663e-007 
